<svg xmlns="http://www.w3.org/2000/svg" xmlns:xlink="http://www.w3.org/1999/xlink" width="500" zoomAndPan="magnify" viewBox="0 0 375 74.999997" height="100" preserveAspectRatio="xMidYMid meet" version="1.0"><defs><g/></defs><g fill="#000000" fill-opacity="1"><g transform="translate(-0.00427577, 50.855448)"><g><path d="M 12.984375 0 L 2.8125 -28.015625 C 2.445312 -29.046875 2.015625 -30.097656 1.515625 -31.171875 C 1.015625 -32.242188 0.507812 -33.207031 0 -34.0625 L 6.859375 -34.0625 C 6.890625 -33.269531 7.0625 -32.328125 7.375 -31.234375 C 7.695312 -30.148438 8.039062 -29.109375 8.40625 -28.109375 L 17.625 -2.640625 L 26.828125 -28.109375 C 27.191406 -29.109375 27.207031 -30.117188 26.875 -31.140625 C 26.539062 -32.171875 26.101562 -33.144531 25.5625 -34.0625 L 31.515625 -34.0625 C 31.023438 -33.207031 30.519531 -32.242188 30 -31.171875 C 29.488281 -30.097656 29.054688 -29.046875 28.703125 -28.015625 L 18.578125 0 Z M 12.984375 0 "/></g></g></g><g fill="#000000" fill-opacity="1"><g transform="translate(32.282491, 50.855448)"><g><path d="M 11.125 -22.25 C 13.1875 -22.25 15.054688 -21.75 16.734375 -20.75 C 18.410156 -19.75 19.75 -18.410156 20.75 -16.734375 C 21.75 -15.054688 22.25 -13.1875 22.25 -11.125 C 22.25 -9.09375 21.75 -7.226562 20.75 -5.53125 C 19.75 -3.84375 18.410156 -2.5 16.734375 -1.5 C 15.054688 -0.5 13.1875 0 11.125 0 C 9.09375 0 7.226562 -0.5 5.53125 -1.5 C 3.84375 -2.5 2.5 -3.84375 1.5 -5.53125 C 0.5 -7.226562 0 -9.09375 0 -11.125 C 0 -13.1875 0.5 -15.054688 1.5 -16.734375 C 2.5 -18.410156 3.84375 -19.75 5.53125 -20.75 C 7.226562 -21.75 9.09375 -22.25 11.125 -22.25 Z M 15.984375 -2.90625 C 17.078125 -3.539062 17.84375 -4.484375 18.28125 -5.734375 C 18.71875 -6.992188 18.828125 -8.40625 18.609375 -9.96875 C 18.398438 -11.53125 17.84375 -13.066406 16.9375 -14.578125 C 16.0625 -16.085938 14.992188 -17.3125 13.734375 -18.25 C 12.472656 -19.1875 11.1875 -19.757812 9.875 -19.96875 C 8.5625 -20.1875 7.359375 -19.976562 6.265625 -19.34375 C 5.203125 -18.738281 4.441406 -17.804688 3.984375 -16.546875 C 3.535156 -15.296875 3.425781 -13.890625 3.65625 -12.328125 C 3.882812 -10.765625 4.4375 -9.226562 5.3125 -7.71875 C 6.21875 -6.207031 7.289062 -4.972656 8.53125 -4.015625 C 9.769531 -3.066406 11.054688 -2.484375 12.390625 -2.265625 C 13.722656 -2.054688 14.921875 -2.269531 15.984375 -2.90625 Z M 15.984375 -2.90625 "/></g></g></g><g fill="#000000" fill-opacity="1"><g transform="translate(55.214709, 50.855448)"><g><path d="M 6 0 L 1.640625 0 C 1.242188 -0.96875 1.003906 -1.921875 0.921875 -2.859375 C 0.847656 -3.796875 0.8125 -4.8125 0.8125 -5.90625 L 0.8125 -28.515625 C 0.8125 -29.660156 0.757812 -30.65625 0.65625 -31.5 C 0.550781 -32.351562 0.332031 -33.207031 0 -34.0625 C 1 -34.0625 2 -34.0625 3 -34.0625 C 4 -34.0625 5 -34.0625 6 -34.0625 C 5.664062 -33.207031 5.441406 -32.351562 5.328125 -31.5 C 5.222656 -30.65625 5.171875 -29.660156 5.171875 -28.515625 L 5.171875 -5.546875 C 5.171875 -4.421875 5.222656 -3.429688 5.328125 -2.578125 C 5.441406 -1.734375 5.664062 -0.875 6 0 Z M 6 0 "/></g></g></g><g fill="#000000" fill-opacity="1"><g transform="translate(61.935439, 50.855448)"><g><path d="M 11.125 -22.25 C 13.1875 -22.25 15.054688 -21.75 16.734375 -20.75 C 18.410156 -19.75 19.75 -18.410156 20.75 -16.734375 C 21.75 -15.054688 22.25 -13.1875 22.25 -11.125 C 22.25 -9.09375 21.75 -7.226562 20.75 -5.53125 C 19.75 -3.84375 18.410156 -2.5 16.734375 -1.5 C 15.054688 -0.5 13.1875 0 11.125 0 C 9.09375 0 7.226562 -0.5 5.53125 -1.5 C 3.84375 -2.5 2.5 -3.84375 1.5 -5.53125 C 0.5 -7.226562 0 -9.09375 0 -11.125 C 0 -13.1875 0.5 -15.054688 1.5 -16.734375 C 2.5 -18.410156 3.84375 -19.75 5.53125 -20.75 C 7.226562 -21.75 9.09375 -22.25 11.125 -22.25 Z M 15.984375 -2.90625 C 17.078125 -3.539062 17.84375 -4.484375 18.28125 -5.734375 C 18.71875 -6.992188 18.828125 -8.40625 18.609375 -9.96875 C 18.398438 -11.53125 17.84375 -13.066406 16.9375 -14.578125 C 16.0625 -16.085938 14.992188 -17.3125 13.734375 -18.25 C 12.472656 -19.1875 11.1875 -19.757812 9.875 -19.96875 C 8.5625 -20.1875 7.359375 -19.976562 6.265625 -19.34375 C 5.203125 -18.738281 4.441406 -17.804688 3.984375 -16.546875 C 3.535156 -15.296875 3.425781 -13.890625 3.65625 -12.328125 C 3.882812 -10.765625 4.4375 -9.226562 5.3125 -7.71875 C 6.21875 -6.207031 7.289062 -4.972656 8.53125 -4.015625 C 9.769531 -3.066406 11.054688 -2.484375 12.390625 -2.265625 C 13.722656 -2.054688 14.921875 -2.269531 15.984375 -2.90625 Z M 15.984375 -2.90625 "/></g></g></g><g fill="#000000" fill-opacity="1"><g transform="translate(84.867653, 50.855448)"><g><path d="M 0 -16.296875 C -0.03125 -17.929688 0.722656 -19.332031 2.265625 -20.5 C 3.816406 -21.664062 5.96875 -22.25 8.71875 -22.25 C 10.71875 -22.25 12.773438 -22.113281 14.890625 -21.84375 C 17.015625 -21.570312 18.816406 -21.269531 20.296875 -20.9375 L 17.15625 -16.578125 C 16.039062 -17.484375 14.816406 -18.304688 13.484375 -19.046875 C 12.148438 -19.785156 10.773438 -20.28125 9.359375 -20.53125 C 8.835938 -20.613281 8.226562 -20.65625 7.53125 -20.65625 C 6.84375 -20.65625 6.164062 -20.582031 5.5 -20.4375 C 3.894531 -20.070312 3.007812 -19.445312 2.84375 -18.5625 C 2.675781 -17.6875 3.210938 -16.8125 4.453125 -15.9375 C 5.328125 -15.332031 6.429688 -14.769531 7.765625 -14.25 C 9.097656 -13.738281 10.484375 -13.222656 11.921875 -12.703125 C 13.359375 -12.191406 14.703125 -11.625 15.953125 -11 C 17.210938 -10.382812 18.242188 -9.664062 19.046875 -8.84375 C 19.847656 -8.03125 20.265625 -7.066406 20.296875 -5.953125 C 20.328125 -4.316406 19.566406 -2.914062 18.015625 -1.75 C 16.472656 -0.582031 14.328125 0 11.578125 0 C 9.546875 0 7.484375 -0.132812 5.390625 -0.40625 C 3.304688 -0.675781 1.507812 -0.976562 0 -1.3125 L 3.140625 -5.671875 C 4.253906 -4.765625 5.476562 -3.941406 6.8125 -3.203125 C 8.144531 -2.460938 9.519531 -1.96875 10.9375 -1.71875 C 11.457031 -1.632812 12.054688 -1.59375 12.734375 -1.59375 C 13.421875 -1.59375 14.09375 -1.664062 14.75 -1.8125 C 16.207031 -2.144531 17.070312 -2.617188 17.34375 -3.234375 C 17.613281 -3.859375 17.488281 -4.503906 16.96875 -5.171875 C 16.457031 -5.835938 15.71875 -6.429688 14.75 -6.953125 C 13.78125 -7.460938 12.648438 -7.953125 11.359375 -8.421875 C 10.078125 -8.890625 8.78125 -9.375 7.46875 -9.875 C 6.15625 -10.375 4.9375 -10.925781 3.8125 -11.53125 C 2.695312 -12.132812 1.789062 -12.820312 1.09375 -13.59375 C 0.394531 -14.363281 0.03125 -15.265625 0 -16.296875 Z M 0 -16.296875 "/></g></g></g><g fill="#000000" fill-opacity="1"><g transform="translate(106.028885, 50.855448)"><g/></g></g><g fill="#000000" fill-opacity="1"><g transform="translate(118.607548, 50.855448)"><g><path d="M 13.4375 -34.0625 C 15.976562 -34.0625 18.066406 -33.734375 19.703125 -33.078125 C 21.335938 -32.429688 22.546875 -31.5625 23.328125 -30.46875 C 24.117188 -29.375 24.515625 -28.160156 24.515625 -26.828125 C 24.515625 -25.046875 24.078125 -23.5625 23.203125 -22.375 C 22.328125 -21.195312 21.195312 -20.191406 19.8125 -19.359375 C 18.4375 -18.523438 16.976562 -17.734375 15.4375 -16.984375 L 21.296875 -6.03125 C 21.835938 -5.039062 22.472656 -3.96875 23.203125 -2.8125 C 23.929688 -1.664062 24.582031 -0.726562 25.15625 0 L 17.9375 0 C 17.632812 -1.363281 17.117188 -2.710938 16.390625 -4.046875 L 10.8125 -14.53125 C 9.445312 -13.6875 8.304688 -12.671875 7.390625 -11.484375 C 6.484375 -10.304688 6.03125 -8.8125 6.03125 -7 L 6.03125 -6.03125 C 6.03125 -4.882812 6.09375 -3.8125 6.21875 -2.8125 C 6.34375 -1.8125 6.554688 -0.875 6.859375 0 C 5.859375 0 4.710938 0 3.421875 0 C 2.140625 0 1 0 0 0 C 0.332031 -0.875 0.550781 -1.8125 0.65625 -2.8125 C 0.757812 -3.8125 0.8125 -4.882812 0.8125 -6.03125 C 0.8125 -6.789062 0.8125 -7.90625 0.8125 -9.375 C 0.8125 -10.84375 0.8125 -12.484375 0.8125 -14.296875 C 0.8125 -16.117188 0.8125 -17.9375 0.8125 -19.75 C 0.8125 -21.5625 0.8125 -23.203125 0.8125 -24.671875 C 0.8125 -26.140625 0.8125 -27.253906 0.8125 -28.015625 C 0.8125 -29.160156 0.757812 -30.238281 0.65625 -31.25 C 0.550781 -32.269531 0.332031 -33.207031 0 -34.0625 Z M 6.03125 -12.4375 C 6.789062 -13.738281 7.738281 -14.859375 8.875 -15.796875 C 10.007812 -16.734375 11.1875 -17.585938 12.40625 -18.359375 C 13.632812 -19.140625 14.769531 -19.929688 15.8125 -20.734375 C 16.863281 -21.535156 17.710938 -22.441406 18.359375 -23.453125 C 19.015625 -24.460938 19.3125 -25.664062 19.25 -27.0625 C 19.21875 -28.457031 18.703125 -29.546875 17.703125 -30.328125 C 16.703125 -31.117188 15.414062 -31.671875 13.84375 -31.984375 C 12.269531 -32.304688 10.578125 -32.46875 8.765625 -32.46875 L 6.03125 -32.46875 Z M 6.03125 -12.4375 "/></g></g></g><g fill="#000000" fill-opacity="1"><g transform="translate(144.446021, 50.855448)"><g><path d="M 9.4375 -3.671875 C 10.738281 -2.859375 12.113281 -2.507812 13.5625 -2.625 C 15.019531 -2.75 16.351562 -3.234375 17.5625 -4.078125 C 18.78125 -4.929688 19.675781 -6.023438 20.25 -7.359375 L 21.109375 -6.171875 C 20.203125 -4.328125 18.851562 -2.835938 17.0625 -1.703125 C 15.28125 -0.566406 13.300781 0 11.125 0 C 9.09375 0 7.226562 -0.5 5.53125 -1.5 C 3.84375 -2.5 2.5 -3.84375 1.5 -5.53125 C 0.5 -7.226562 0 -9.09375 0 -11.125 C 0 -13.1875 0.5 -15.054688 1.5 -16.734375 C 2.5 -18.410156 3.84375 -19.75 5.53125 -20.75 C 7.226562 -21.75 9.09375 -22.25 11.125 -22.25 C 12.726562 -22.25 14.25 -21.9375 15.6875 -21.3125 C 17.125 -20.695312 18.3125 -19.84375 19.25 -18.75 C 20.28125 -17.570312 20.882812 -16.28125 21.0625 -14.875 C 21.25 -13.46875 21 -12.15625 20.3125 -10.9375 C 19.632812 -9.726562 18.476562 -8.851562 16.84375 -8.3125 C 16.082031 -8.070312 15.296875 -7.875 14.484375 -7.71875 C 13.671875 -7.5625 12.882812 -7.378906 12.125 -7.171875 C 10.664062 -6.804688 9.632812 -6.273438 9.03125 -5.578125 C 8.425781 -4.890625 8.5625 -4.253906 9.4375 -3.671875 Z M 7 -5.5 C 7.445312 -6.4375 8.101562 -7.144531 8.96875 -7.625 C 9.832031 -8.113281 10.753906 -8.515625 11.734375 -8.828125 C 12.722656 -9.148438 13.640625 -9.476562 14.484375 -9.8125 C 15.546875 -10.257812 16.226562 -10.914062 16.53125 -11.78125 C 16.832031 -12.644531 16.847656 -13.546875 16.578125 -14.484375 C 16.304688 -15.421875 15.828125 -16.265625 15.140625 -17.015625 C 14.460938 -17.773438 13.675781 -18.421875 12.78125 -18.953125 C 11.882812 -19.484375 10.96875 -19.828125 10.03125 -19.984375 C 9.394531 -20.066406 8.757812 -20.0625 8.125 -19.96875 C 7.488281 -19.882812 6.867188 -19.675781 6.265625 -19.34375 C 5.203125 -18.738281 4.441406 -17.804688 3.984375 -16.546875 C 3.535156 -15.296875 3.425781 -13.890625 3.65625 -12.328125 C 3.882812 -10.765625 4.4375 -9.226562 5.3125 -7.71875 C 5.820312 -6.875 6.382812 -6.132812 7 -5.5 Z M 7 -5.5 "/></g></g></g><g fill="#000000" fill-opacity="1"><g transform="translate(166.424638, 50.855448)"><g><path d="M 0 -22.25 L 4.359375 -22.25 C 4.597656 -21.613281 4.773438 -20.984375 4.890625 -20.359375 C 5.015625 -19.742188 5.09375 -19.101562 5.125 -18.4375 C 6.09375 -19.039062 7.128906 -19.628906 8.234375 -20.203125 C 9.347656 -20.773438 10.507812 -21.257812 11.71875 -21.65625 C 12.925781 -22.050781 14.117188 -22.25 15.296875 -22.25 C 17.171875 -22.25 18.597656 -21.769531 19.578125 -20.8125 C 20.566406 -19.863281 21.0625 -18.453125 21.0625 -16.578125 C 21.0625 -14.847656 21.0625 -12.984375 21.0625 -10.984375 C 21.0625 -8.984375 21.0625 -7.171875 21.0625 -5.546875 C 21.0625 -4.421875 21.125 -3.429688 21.25 -2.578125 C 21.375 -1.734375 21.585938 -0.875 21.890625 0 C 20.890625 0 19.890625 0 18.890625 0 C 17.890625 0 16.890625 0 15.890625 0 C 16.222656 -0.875 16.441406 -1.734375 16.546875 -2.578125 C 16.648438 -3.429688 16.703125 -4.421875 16.703125 -5.546875 L 16.703125 -15.671875 C 16.703125 -17.117188 16.429688 -18.160156 15.890625 -18.796875 C 15.347656 -19.429688 14.617188 -19.765625 13.703125 -19.796875 C 12.796875 -19.828125 11.785156 -19.660156 10.671875 -19.296875 C 9.734375 -18.992188 8.765625 -18.597656 7.765625 -18.109375 C 6.765625 -17.628906 5.898438 -17.175781 5.171875 -16.75 C 5.171875 -16.695312 5.171875 -16.640625 5.171875 -16.578125 C 5.171875 -16.515625 5.171875 -16.453125 5.171875 -16.390625 L 5.171875 -5.546875 C 5.171875 -4.421875 5.222656 -3.429688 5.328125 -2.578125 C 5.441406 -1.734375 5.664062 -0.875 6 0 C 5 0 4 0 3 0 C 2 0 1 0 0 0 C 0.332031 -0.875 0.550781 -1.734375 0.65625 -2.578125 C 0.757812 -3.429688 0.8125 -4.421875 0.8125 -5.546875 L 0.8125 -16.703125 C 0.8125 -17.859375 0.757812 -18.859375 0.65625 -19.703125 C 0.550781 -20.554688 0.332031 -21.40625 0 -22.25 Z M 0 -22.25 "/></g></g></g><g fill="#000000" fill-opacity="1"><g transform="translate(189.038996, 50.855448)"><g><path d="M 0 -22.25 C 0.9375 -22.25 1.789062 -22.535156 2.5625 -23.109375 C 3.332031 -23.679688 3.984375 -24.421875 4.515625 -25.328125 C 5.046875 -26.242188 5.390625 -27.1875 5.546875 -28.15625 L 7.078125 -28.15625 L 7.078125 -22.25 L 12.125 -22.25 L 12.125 -20.65625 L 7.078125 -20.65625 L 7.078125 -5.546875 C 7.078125 -4.117188 7.359375 -3.210938 7.921875 -2.828125 C 8.484375 -2.453125 9.15625 -2.445312 9.9375 -2.8125 C 10.726562 -3.175781 11.457031 -3.722656 12.125 -4.453125 L 12.984375 -3.3125 C 11.921875 -2.3125 10.835938 -1.507812 9.734375 -0.90625 C 8.628906 -0.300781 7.578125 0 6.578125 0 C 5.492188 0 4.578125 -0.441406 3.828125 -1.328125 C 3.085938 -2.222656 2.71875 -3.75 2.71875 -5.90625 L 2.71875 -20.65625 L 0 -20.65625 Z M 0 -22.25 "/></g></g></g><g fill="#000000" fill-opacity="1"><g transform="translate(202.798317, 50.855448)"><g><path d="M 20.25 -5.546875 C 20.25 -4.421875 20.304688 -3.429688 20.421875 -2.578125 C 20.546875 -1.734375 20.757812 -0.875 21.0625 0 L 16.703125 0 C 16.316406 -0.96875 16.082031 -1.925781 16 -2.875 C 15.925781 -3.832031 15.890625 -4.875 15.890625 -6 L 15.890625 -7.984375 C 15.492188 -6.203125 14.8125 -4.71875 13.84375 -3.53125 C 12.875 -2.351562 11.769531 -1.46875 10.53125 -0.875 C 9.289062 -0.289062 8.035156 0 6.765625 0 C 5.585938 0 4.484375 -0.253906 3.453125 -0.765625 C 2.421875 -1.285156 1.585938 -2.050781 0.953125 -3.0625 C 0.316406 -4.082031 0 -5.332031 0 -6.8125 C 0 -8.925781 0.648438 -10.597656 1.953125 -11.828125 C 3.253906 -13.054688 4.9375 -13.640625 7 -13.578125 C 7.875 -13.546875 8.753906 -13.484375 9.640625 -13.390625 C 10.535156 -13.304688 11.410156 -13.367188 12.265625 -13.578125 C 13.378906 -13.847656 14.242188 -14.367188 14.859375 -15.140625 C 15.484375 -15.910156 15.828125 -16.71875 15.890625 -17.5625 C 15.953125 -18.414062 15.707031 -19.148438 15.15625 -19.765625 C 14.613281 -20.390625 13.738281 -20.6875 12.53125 -20.65625 C 10.800781 -20.625 9.125 -20.195312 7.5 -19.375 C 5.882812 -18.5625 4.429688 -17.628906 3.140625 -16.578125 L 0 -20.9375 C 1.507812 -21.269531 3.304688 -21.570312 5.390625 -21.84375 C 7.484375 -22.113281 9.546875 -22.25 11.578125 -22.25 C 12.703125 -22.25 13.773438 -22.179688 14.796875 -22.046875 C 15.828125 -21.910156 16.75 -21.632812 17.5625 -21.21875 C 18.382812 -20.8125 19.035156 -20.195312 19.515625 -19.375 C 20.003906 -18.5625 20.25 -17.476562 20.25 -16.125 C 20.25 -15.125 20.25 -13.945312 20.25 -12.59375 C 20.25 -11.25 20.25 -9.941406 20.25 -8.671875 C 20.25 -7.398438 20.25 -6.359375 20.25 -5.546875 Z M 8.453125 -2.40625 C 9.773438 -2.4375 10.890625 -2.875 11.796875 -3.71875 C 12.710938 -4.570312 13.445312 -5.632812 14 -6.90625 C 14.5625 -8.175781 14.992188 -9.472656 15.296875 -10.796875 C 15.597656 -12.128906 15.796875 -13.3125 15.890625 -14.34375 C 15.492188 -13.59375 14.914062 -13.039062 14.15625 -12.6875 C 13.40625 -12.34375 12.582031 -12.109375 11.6875 -11.984375 C 10.800781 -11.867188 9.960938 -11.75 9.171875 -11.625 C 7.804688 -11.445312 6.742188 -11.007812 5.984375 -10.3125 C 5.234375 -9.613281 4.75 -8.816406 4.53125 -7.921875 C 4.320312 -7.023438 4.335938 -6.15625 4.578125 -5.3125 C 4.828125 -4.46875 5.285156 -3.765625 5.953125 -3.203125 C 6.617188 -2.640625 7.453125 -2.375 8.453125 -2.40625 Z M 8.453125 -2.40625 "/></g></g></g><g fill="#000000" fill-opacity="1"><g transform="translate(224.595293, 50.855448)"><g><path d="M 6 0 L 1.640625 0 C 1.242188 -0.96875 1.003906 -1.921875 0.921875 -2.859375 C 0.847656 -3.796875 0.8125 -4.8125 0.8125 -5.90625 L 0.8125 -28.515625 C 0.8125 -29.660156 0.757812 -30.65625 0.65625 -31.5 C 0.550781 -32.351562 0.332031 -33.207031 0 -34.0625 C 1 -34.0625 2 -34.0625 3 -34.0625 C 4 -34.0625 5 -34.0625 6 -34.0625 C 5.664062 -33.207031 5.441406 -32.351562 5.328125 -31.5 C 5.222656 -30.65625 5.171875 -29.660156 5.171875 -28.515625 L 5.171875 -5.546875 C 5.171875 -4.421875 5.222656 -3.429688 5.328125 -2.578125 C 5.441406 -1.734375 5.664062 -0.875 6 0 Z M 6 0 "/></g></g></g><g fill="#000000" fill-opacity="1"><g transform="translate(231.31601, 50.855448)"><g/></g></g><g fill="#000000" fill-opacity="1"><g transform="translate(243.894666, 50.855448)"><g><path d="M 6.03125 -6.03125 C 6.03125 -4.882812 6.09375 -3.8125 6.21875 -2.8125 C 6.34375 -1.8125 6.554688 -0.875 6.859375 0 L 0 0 C 0.332031 -0.875 0.550781 -1.8125 0.65625 -2.8125 C 0.757812 -3.8125 0.8125 -4.882812 0.8125 -6.03125 C 0.8125 -6.789062 0.8125 -7.90625 0.8125 -9.375 C 0.8125 -10.84375 0.8125 -12.484375 0.8125 -14.296875 C 0.8125 -16.117188 0.8125 -17.9375 0.8125 -19.75 C 0.8125 -21.5625 0.8125 -23.203125 0.8125 -24.671875 C 0.8125 -26.140625 0.8125 -27.253906 0.8125 -28.015625 C 0.8125 -29.160156 0.757812 -30.238281 0.65625 -31.25 C 0.550781 -32.269531 0.332031 -33.207031 0 -34.0625 L 6.859375 -34.0625 C 6.554688 -33.207031 6.34375 -32.269531 6.21875 -31.25 C 6.09375 -30.238281 6.03125 -29.160156 6.03125 -28.015625 L 6.03125 -16.484375 L 21.203125 -16.484375 L 21.203125 -28.015625 C 21.203125 -29.160156 21.148438 -30.238281 21.046875 -31.25 C 20.941406 -32.269531 20.722656 -33.207031 20.390625 -34.0625 L 27.25 -34.0625 C 26.945312 -33.207031 26.734375 -32.269531 26.609375 -31.25 C 26.484375 -30.238281 26.421875 -29.160156 26.421875 -28.015625 C 26.421875 -27.253906 26.421875 -26.140625 26.421875 -24.671875 C 26.421875 -23.203125 26.421875 -21.5625 26.421875 -19.75 C 26.421875 -17.9375 26.421875 -16.117188 26.421875 -14.296875 C 26.421875 -12.484375 26.421875 -10.84375 26.421875 -9.375 C 26.421875 -7.90625 26.421875 -6.789062 26.421875 -6.03125 C 26.421875 -4.882812 26.484375 -3.8125 26.609375 -2.8125 C 26.734375 -1.8125 26.945312 -0.875 27.25 0 L 20.390625 0 C 20.722656 -0.875 20.941406 -1.8125 21.046875 -2.8125 C 21.148438 -3.8125 21.203125 -4.882812 21.203125 -6.03125 L 21.203125 -14.71875 L 6.03125 -14.71875 Z M 6.03125 -6.03125 "/></g></g></g><g fill="#000000" fill-opacity="1"><g transform="translate(271.822041, 50.855448)"><g><path d="M 11.125 -22.25 C 13.1875 -22.25 15.054688 -21.75 16.734375 -20.75 C 18.410156 -19.75 19.75 -18.410156 20.75 -16.734375 C 21.75 -15.054688 22.25 -13.1875 22.25 -11.125 C 22.25 -9.09375 21.75 -7.226562 20.75 -5.53125 C 19.75 -3.84375 18.410156 -2.5 16.734375 -1.5 C 15.054688 -0.5 13.1875 0 11.125 0 C 9.09375 0 7.226562 -0.5 5.53125 -1.5 C 3.84375 -2.5 2.5 -3.84375 1.5 -5.53125 C 0.5 -7.226562 0 -9.09375 0 -11.125 C 0 -13.1875 0.5 -15.054688 1.5 -16.734375 C 2.5 -18.410156 3.84375 -19.75 5.53125 -20.75 C 7.226562 -21.75 9.09375 -22.25 11.125 -22.25 Z M 15.984375 -2.90625 C 17.078125 -3.539062 17.84375 -4.484375 18.28125 -5.734375 C 18.71875 -6.992188 18.828125 -8.40625 18.609375 -9.96875 C 18.398438 -11.53125 17.84375 -13.066406 16.9375 -14.578125 C 16.0625 -16.085938 14.992188 -17.3125 13.734375 -18.25 C 12.472656 -19.1875 11.1875 -19.757812 9.875 -19.96875 C 8.5625 -20.1875 7.359375 -19.976562 6.265625 -19.34375 C 5.203125 -18.738281 4.441406 -17.804688 3.984375 -16.546875 C 3.535156 -15.296875 3.425781 -13.890625 3.65625 -12.328125 C 3.882812 -10.765625 4.4375 -9.226562 5.3125 -7.71875 C 6.21875 -6.207031 7.289062 -4.972656 8.53125 -4.015625 C 9.769531 -3.066406 11.054688 -2.484375 12.390625 -2.265625 C 13.722656 -2.054688 14.921875 -2.269531 15.984375 -2.90625 Z M 15.984375 -2.90625 "/></g></g></g><g fill="#000000" fill-opacity="1"><g transform="translate(294.754286, 50.855448)"><g><path d="M 0 -22.25 L 4.359375 -22.25 C 4.628906 -21.582031 4.816406 -20.9375 4.921875 -20.3125 C 5.023438 -19.695312 5.09375 -19.054688 5.125 -18.390625 C 6.375 -19.359375 7.675781 -20.242188 9.03125 -21.046875 C 10.394531 -21.847656 11.726562 -22.25 13.03125 -22.25 C 16.238281 -22.25 18.113281 -20.914062 18.65625 -18.25 C 19.90625 -19.25 21.222656 -20.164062 22.609375 -21 C 24.003906 -21.832031 25.351562 -22.25 26.65625 -22.25 C 28.53125 -22.25 29.96875 -21.769531 30.96875 -20.8125 C 31.96875 -19.863281 32.46875 -18.453125 32.46875 -16.578125 C 32.46875 -14.847656 32.46875 -12.984375 32.46875 -10.984375 C 32.46875 -8.984375 32.46875 -7.171875 32.46875 -5.546875 C 32.46875 -4.421875 32.519531 -3.429688 32.625 -2.578125 C 32.726562 -1.734375 32.929688 -0.875 33.234375 0 C 32.265625 0 31.28125 0 30.28125 0 C 29.28125 0 28.285156 0 27.296875 0 C 27.617188 -0.875 27.828125 -1.734375 27.921875 -2.578125 C 28.015625 -3.429688 28.0625 -4.421875 28.0625 -5.546875 L 28.0625 -15.671875 C 28.0625 -17.273438 27.726562 -18.378906 27.0625 -18.984375 C 26.394531 -19.585938 25.53125 -19.859375 24.46875 -19.796875 C 23.71875 -19.765625 22.816406 -19.421875 21.765625 -18.765625 C 20.722656 -18.117188 19.734375 -17.421875 18.796875 -16.671875 C 18.796875 -16.640625 18.796875 -16.625 18.796875 -16.625 C 18.796875 -16.625 18.796875 -16.609375 18.796875 -16.578125 C 18.796875 -14.847656 18.796875 -12.984375 18.796875 -10.984375 C 18.796875 -8.984375 18.796875 -7.171875 18.796875 -5.546875 C 18.796875 -4.421875 18.851562 -3.429688 18.96875 -2.578125 C 19.09375 -1.734375 19.304688 -0.875 19.609375 0 C 18.609375 0 17.609375 0 16.609375 0 C 15.617188 0 14.625 0 13.625 0 C 13.957031 -0.875 14.175781 -1.734375 14.28125 -2.578125 C 14.382812 -3.429688 14.4375 -4.421875 14.4375 -5.546875 L 14.4375 -15.671875 C 14.4375 -17.273438 14.101562 -18.378906 13.4375 -18.984375 C 12.769531 -19.585938 11.910156 -19.859375 10.859375 -19.796875 C 10.097656 -19.765625 9.191406 -19.421875 8.140625 -18.765625 C 7.097656 -18.117188 6.109375 -17.421875 5.171875 -16.671875 L 5.171875 -5.546875 C 5.171875 -4.421875 5.222656 -3.429688 5.328125 -2.578125 C 5.441406 -1.734375 5.664062 -0.875 6 0 C 5 0 4 0 3 0 C 2 0 1 0 0 0 C 0.332031 -0.875 0.550781 -1.734375 0.65625 -2.578125 C 0.757812 -3.429688 0.8125 -4.421875 0.8125 -5.546875 L 0.8125 -16.703125 C 0.8125 -17.859375 0.757812 -18.859375 0.65625 -19.703125 C 0.550781 -20.554688 0.332031 -21.40625 0 -22.25 Z M 0 -22.25 "/></g></g></g><g fill="#000000" fill-opacity="1"><g transform="translate(328.766637, 50.855448)"><g><path d="M 9.4375 -3.671875 C 10.738281 -2.859375 12.113281 -2.507812 13.5625 -2.625 C 15.019531 -2.75 16.351562 -3.234375 17.5625 -4.078125 C 18.78125 -4.929688 19.675781 -6.023438 20.25 -7.359375 L 21.109375 -6.171875 C 20.203125 -4.328125 18.851562 -2.835938 17.0625 -1.703125 C 15.28125 -0.566406 13.300781 0 11.125 0 C 9.09375 0 7.226562 -0.5 5.53125 -1.5 C 3.84375 -2.5 2.5 -3.84375 1.5 -5.53125 C 0.5 -7.226562 0 -9.09375 0 -11.125 C 0 -13.1875 0.5 -15.054688 1.5 -16.734375 C 2.5 -18.410156 3.84375 -19.75 5.53125 -20.75 C 7.226562 -21.75 9.09375 -22.25 11.125 -22.25 C 12.726562 -22.25 14.25 -21.9375 15.6875 -21.3125 C 17.125 -20.695312 18.3125 -19.84375 19.25 -18.75 C 20.28125 -17.570312 20.882812 -16.28125 21.0625 -14.875 C 21.25 -13.46875 21 -12.15625 20.3125 -10.9375 C 19.632812 -9.726562 18.476562 -8.851562 16.84375 -8.3125 C 16.082031 -8.070312 15.296875 -7.875 14.484375 -7.71875 C 13.671875 -7.5625 12.882812 -7.378906 12.125 -7.171875 C 10.664062 -6.804688 9.632812 -6.273438 9.03125 -5.578125 C 8.425781 -4.890625 8.5625 -4.253906 9.4375 -3.671875 Z M 7 -5.5 C 7.445312 -6.4375 8.101562 -7.144531 8.96875 -7.625 C 9.832031 -8.113281 10.753906 -8.515625 11.734375 -8.828125 C 12.722656 -9.148438 13.640625 -9.476562 14.484375 -9.8125 C 15.546875 -10.257812 16.226562 -10.914062 16.53125 -11.78125 C 16.832031 -12.644531 16.847656 -13.546875 16.578125 -14.484375 C 16.304688 -15.421875 15.828125 -16.265625 15.140625 -17.015625 C 14.460938 -17.773438 13.675781 -18.421875 12.78125 -18.953125 C 11.882812 -19.484375 10.96875 -19.828125 10.03125 -19.984375 C 9.394531 -20.066406 8.757812 -20.0625 8.125 -19.96875 C 7.488281 -19.882812 6.867188 -19.675781 6.265625 -19.34375 C 5.203125 -18.738281 4.441406 -17.804688 3.984375 -16.546875 C 3.535156 -15.296875 3.425781 -13.890625 3.65625 -12.328125 C 3.882812 -10.765625 4.4375 -9.226562 5.3125 -7.71875 C 5.820312 -6.875 6.382812 -6.132812 7 -5.5 Z M 7 -5.5 "/></g></g></g><g fill="#000000" fill-opacity="1"><g transform="translate(350.745237, 50.855448)"><g><path d="M 0 -16.296875 C -0.03125 -17.929688 0.722656 -19.332031 2.265625 -20.5 C 3.816406 -21.664062 5.96875 -22.25 8.71875 -22.25 C 10.71875 -22.25 12.773438 -22.113281 14.890625 -21.84375 C 17.015625 -21.570312 18.816406 -21.269531 20.296875 -20.9375 L 17.15625 -16.578125 C 16.039062 -17.484375 14.816406 -18.304688 13.484375 -19.046875 C 12.148438 -19.785156 10.773438 -20.28125 9.359375 -20.53125 C 8.835938 -20.613281 8.226562 -20.65625 7.53125 -20.65625 C 6.84375 -20.65625 6.164062 -20.582031 5.5 -20.4375 C 3.894531 -20.070312 3.007812 -19.445312 2.84375 -18.5625 C 2.675781 -17.6875 3.210938 -16.8125 4.453125 -15.9375 C 5.328125 -15.332031 6.429688 -14.769531 7.765625 -14.25 C 9.097656 -13.738281 10.484375 -13.222656 11.921875 -12.703125 C 13.359375 -12.191406 14.703125 -11.625 15.953125 -11 C 17.210938 -10.382812 18.242188 -9.664062 19.046875 -8.84375 C 19.847656 -8.03125 20.265625 -7.066406 20.296875 -5.953125 C 20.328125 -4.316406 19.566406 -2.914062 18.015625 -1.75 C 16.472656 -0.582031 14.328125 0 11.578125 0 C 9.546875 0 7.484375 -0.132812 5.390625 -0.40625 C 3.304688 -0.675781 1.507812 -0.976562 0 -1.3125 L 3.140625 -5.671875 C 4.253906 -4.765625 5.476562 -3.941406 6.8125 -3.203125 C 8.144531 -2.460938 9.519531 -1.96875 10.9375 -1.71875 C 11.457031 -1.632812 12.054688 -1.59375 12.734375 -1.59375 C 13.421875 -1.59375 14.09375 -1.664062 14.75 -1.8125 C 16.207031 -2.144531 17.070312 -2.617188 17.34375 -3.234375 C 17.613281 -3.859375 17.488281 -4.503906 16.96875 -5.171875 C 16.457031 -5.835938 15.71875 -6.429688 14.75 -6.953125 C 13.78125 -7.460938 12.648438 -7.953125 11.359375 -8.421875 C 10.078125 -8.890625 8.78125 -9.375 7.46875 -9.875 C 6.15625 -10.375 4.9375 -10.925781 3.8125 -11.53125 C 2.695312 -12.132812 1.789062 -12.820312 1.09375 -13.59375 C 0.394531 -14.363281 0.03125 -15.265625 0 -16.296875 Z M 0 -16.296875 "/></g></g></g></svg>